<svg width="62" height="34" viewBox="0 0 62 34" fill="none" xmlns="http://www.w3.org/2000/svg">
<g clip-path="url(#clip0)">
<path d="M0 52.094H61.8089C61.8089 41.1483 61.8089 12.8009 61.8089 1.15142H0C0 18.6721 0 34.296 0 52.094ZM59.8774 50.1438H1.93151V33.3183H59.8774V50.1438ZM59.8774 31.3681H1.93151V19.9275H59.8774V31.3681ZM1.93151 3.10159H59.8774V17.9774H1.93151V3.10159Z" fill="white"/>
<path d="M23.3616 22.3229H3.93045V28.9728H23.3616V22.3229ZM21.4301 27.0226H5.86197V24.273H21.4301V27.0226Z" fill="white"/>
<path d="M55.2976 21.8206H36.1437V23.7708H55.2976V21.8206Z" fill="white"/>
<path d="M55.2976 27.5249H36.1437V29.4751H55.2976V27.5249Z" fill="white"/>
<path d="M36.3041 25.6481C36.3041 26.2527 36.7916 26.7451 37.3905 26.7451C37.9894 26.7451 38.477 26.2527 38.477 25.6481C38.477 25.0444 37.9894 24.5535 37.3905 24.5535C36.7916 24.5535 36.3041 25.0444 36.3041 25.6481Z" fill="white"/>
<path d="M40.4689 25.6481C40.4689 26.2527 40.9565 26.7451 41.5554 26.7451C42.1543 26.7451 42.6419 26.2527 42.6419 25.6481C42.6419 25.0444 42.1543 24.5535 41.5554 24.5535C40.9565 24.5535 40.4689 25.0444 40.4689 25.6481Z" fill="white"/>
<path d="M44.6337 25.6481C44.6337 26.2527 45.1213 26.7451 45.7202 26.7451C46.3191 26.7451 46.8067 26.2527 46.8067 25.6481C46.8067 25.0444 46.3191 24.5535 45.7202 24.5535C45.1213 24.5535 44.6337 25.0444 44.6337 25.6481Z" fill="white"/>
<path d="M48.7985 25.6481C48.7985 26.2527 49.2861 26.7451 49.885 26.7451C51.3208 26.7451 51.3236 24.5535 49.885 24.5535C49.2861 24.5535 48.7985 25.0444 48.7985 25.6481Z" fill="white"/>
<path d="M54.0498 26.7451C55.4856 26.7451 55.4884 24.5535 54.0498 24.5535C53.451 24.5535 52.6168 26.7451 54.0498 26.7451Z" fill="white"/>
<path d="M9.27137 5.90782H7.33986V11.9883H5.95158V13.9385H7.33986V15.1711H9.27137V13.9385H10.6596V11.9883H9.27137V5.90782Z" fill="white"/>
<path d="M15.0055 5.90782H13.074V9.56439H11.6857V11.5146H13.074V15.1711H15.0055V11.5146H16.3938V9.56439H15.0055V5.90782Z" fill="white"/>
<path d="M20.7397 5.90782H18.8082V11.9883H17.4199V13.9385H18.8082V15.1711H20.7397V13.9385H22.128V11.9883H20.7397V5.90782Z" fill="white"/>
<path d="M26.4739 5.90782H24.5424V8.1489H23.1541V10.0991H24.5424V15.1711H26.4739V10.0991H27.8622V8.1489H26.4739V5.90782Z" fill="white"/>
<path d="M31.0009 15.8544H43.3529V4.93369H31.0009V15.8544ZM32.9324 6.88386H41.4214V13.9042H32.9324V6.88386Z" fill="white"/>
<path d="M45.7419 15.8544H58.0939V4.93369H45.7419V15.8544ZM47.6734 6.88386H56.1624V13.9042H47.6734V6.88386Z" fill="white"/>
</g>
<defs>
<clipPath id="clip0">
<rect width="61.8089" height="33.2817" fill="white"/>
</clipPath>
</defs>
</svg>
