<svg width="17" height="17" viewBox="0 0 17 17" fill="none" xmlns="http://www.w3.org/2000/svg">
<path fill-rule="evenodd" clip-rule="evenodd" d="M0 2C0 0.89543 0.89543 0 2 0H15C16.1046 0 17 0.89543 17 2V15C17 16.1046 16.1046 17 15 17H2C0.89543 17 0 16.1046 0 15V2Z" fill="white"/>
<path fill-rule="evenodd" clip-rule="evenodd" d="M7.45793 14.4172C7.2936 14.1379 7.5488 13.8037 7.58586 13.4817C7.60245 13.3376 7.55665 13.1888 7.45814 13.0921C7.26409 12.9018 6.19316 12.1068 5.91374 11.7942C5.78408 11.6492 5.60821 11.578 5.53376 11.415C5.36249 11.0399 5.24247 10.5046 5.45973 10.1204C5.4991 10.0508 5.52435 10.0819 5.49429 10.2267C5.32366 11.0468 5.85768 11.7169 5.97525 11.3731C6.05644 11.1358 5.98124 10.7112 6.02456 10.374C6.02862 10.3425 6.03397 10.3094 6.04052 10.2751C6.22609 9.30146 7.32108 7.7436 7.30495 6.75255V6.75255C7.29843 6.36348 7.64652 7.23084 7.99644 7.41473C8.38712 7.62002 8.81652 7.02769 9.42617 6.72709C9.59851 6.64205 9.81984 6.54438 9.80497 6.47185C9.73329 6.12204 9.00436 6.90339 8.3531 6.92971C8.05592 6.94158 7.94563 6.8713 7.83084 6.76047C7.48382 6.425 7.86625 6.70495 8.38209 6.61167C8.61155 6.57016 8.68857 6.53186 8.93183 6.43355C9.1752 6.33524 9.45334 6.18965 9.72869 6.11487C9.92029 6.06278 9.90445 5.91879 9.82979 5.87546C9.78678 5.85054 9.72324 5.853 9.67285 5.94008C9.55465 6.1444 8.99902 6.2625 8.82582 6.31545C8.6031 6.38349 8.35673 6.44714 8.02971 6.43387C7.5327 6.41376 7.64856 6.18591 7.29297 5.98201C7.18867 5.92221 7.21691 5.76528 7.35534 5.62674C7.42787 5.55411 7.62684 5.51314 7.72547 5.34797C7.73927 5.32475 7.86636 5.19189 7.96606 5.123C8.00051 5.09914 8.0035 4.49227 7.6921 4.47975C7.42755 4.46906 7.35234 4.67413 7.36347 4.87856C7.37449 5.08277 7.48275 5.25126 7.55485 5.25051C7.6937 5.24901 7.56373 5.40242 7.48767 5.42713C7.37213 5.46478 7.21381 4.97238 7.232 4.73596C7.25104 4.4897 7.37919 4.05367 7.69092 4.06212C7.97162 4.06972 8.17498 4.42156 8.16471 5.02854C8.16279 5.13145 8.61979 4.97944 8.77233 5.14054C8.8711 5.24503 8.48349 4.27561 9.21195 4.03305C9.37985 3.97715 9.56883 3.98233 9.72784 4.06002C9.79778 4.09418 9.86368 4.14256 9.92273 4.21494C10.173 4.52169 10.4153 5.24139 10.037 5.35813V5.35813C9.88559 5.40483 9.77531 5.38044 9.76816 5.28974C9.7601 5.1876 9.84032 5.09763 9.84439 4.99526C9.85381 4.75876 9.7324 4.42886 9.38573 4.45387C8.95409 4.485 9.01132 5.25083 9.12953 5.26602C9.24795 5.28111 9.54598 5.4926 9.75405 5.53314C10.4367 5.666 9.93516 6.05743 10.0237 6.53122C10.1124 7.00513 10.399 6.94847 10.6834 7.91369C10.7655 8.19258 10.929 8.42818 11.0663 8.68447C11.161 8.86137 11.2697 9.14104 11.3772 9.59863C11.6072 10.5779 11.2814 11.2901 11.8345 11.2317C11.959 11.2186 12.141 11.1837 12.2202 10.9062C12.4273 10.181 12.1165 9.31654 11.8029 8.73331V8.73331C11.7605 8.6542 11.8508 8.57567 11.9012 8.64995C12.0805 8.91388 12.2279 9.21837 12.2823 9.4769C12.411 10.088 12.5054 10.3735 12.3534 10.9646C12.3304 11.0538 12.365 11.1434 12.447 11.1855V11.1855C12.5892 11.2584 12.5255 11.3294 12.3688 11.2977C12.1179 11.247 11.8211 11.266 11.6292 11.3977C11.4274 11.5362 11.1925 11.7216 11.0349 11.9089V11.9089C10.6469 12.3692 11.0071 13.2937 10.9678 13.7893C10.9472 14.0491 10.8959 14.3074 10.8434 14.5665C10.7823 14.8676 10.518 14.9743 10.6096 14.681V14.681C10.675 14.4719 10.7804 14.2097 10.7872 13.9583C10.7935 13.7308 10.7686 13.5887 10.7114 13.5534C10.6539 13.5181 10.5641 13.5896 10.44 13.7895C10.175 14.2161 9.60107 14.4038 9.06513 14.471C8.52918 14.5381 8.03099 14.4848 7.76719 14.1894C7.67701 14.0883 7.52746 14.217 7.5097 14.2437C7.48585 14.2797 7.597 14.3494 7.68076 14.5032C7.68798 14.5165 7.69518 14.5301 7.70228 14.5441C7.85903 14.8531 7.63362 14.7159 7.45793 14.4172V14.4172ZM6.9361 13.8834C7.12812 14.1857 7.80485 15.4586 6.6186 15.6239C6.22183 15.6791 5.58308 15.3931 4.96412 15.2416C4.40806 15.1056 3.84333 15.0252 3.52722 14.9362C3.33691 14.8829 3.25743 14.8145 3.24085 14.7347C3.19699 14.5235 3.47192 14.2272 3.48582 13.9771C3.49973 13.727 3.39457 13.5968 3.30846 13.3929C3.22213 13.1882 3.19977 13.035 3.26877 12.9473C3.32247 12.8791 3.43159 12.8506 3.60916 12.8679C3.83424 12.8903 4.10596 12.8441 4.25198 12.7551C4.27904 12.7385 4.30451 12.7201 4.32829 12.6999C4.43607 12.6083 4.20978 12.5238 4.08617 12.5926V12.5926C3.80536 12.7488 3.37189 12.6224 3.17271 12.7954C2.93297 13.0032 3.25829 13.5405 3.23165 13.9345C3.21122 14.2374 2.8951 14.5786 3.0361 14.8824C3.17795 15.188 3.83927 15.2215 4.52873 15.3655C5.50883 15.5706 6.08019 15.9275 6.53302 15.9442C7.19359 15.9688 7.29479 15.2907 8.33202 15.2815C8.63455 15.2657 8.93044 15.2562 9.22602 15.2525C9.56096 15.2483 9.89547 15.251 10.239 15.2593C10.9293 15.276 10.6919 15.6362 11.1397 15.8663C11.5176 16.0604 12.1969 15.9838 12.3594 15.8287C12.5795 15.6189 13.1699 15.1143 13.6223 14.8863C14.1861 14.6022 15.5104 14.113 14.5491 13.5165C14.5256 13.5019 14.4986 13.4872 14.4693 13.4714C13.9276 13.1801 13.5502 13.3314 14.1331 13.5273V13.5273C14.7583 13.7373 15.1489 14.0889 13.9866 14.4866C13.2169 14.7496 13.0863 14.8307 12.4771 15.3378C11.8605 15.8509 10.9459 15.6472 11.1055 14.5668C11.1888 14.0039 11.2367 13.5389 11.0967 13.0494C11.0281 12.8107 10.9941 12.5039 11.041 12.289C11.1319 11.8709 11.3581 11.7451 11.58 12.1465C11.7192 12.3984 11.7681 12.6928 12.2666 12.7169C13.0496 12.7543 13.2048 11.9601 13.455 11.924C13.622 11.8999 13.7888 11.4273 13.6616 10.663C13.5255 9.84489 13.0441 8.55274 12.4266 7.89751C11.9135 7.35301 11.5901 6.87547 11.3865 6.19404C11.2155 5.6215 11.1203 5.06427 11.1554 4.53153C11.201 3.84122 10.8182 2.88058 10.2087 2.42871C9.82722 2.14576 9.22901 1.99418 8.68761 2.00017C8.3838 2.00349 8.09807 2.04777 7.87834 2.16705C6.97451 2.65775 6.84827 3.35865 6.86186 4.15861C6.87268 4.79698 6.89276 5.51194 6.9509 6.21284C6.97123 6.45796 6.95477 6.70767 6.83644 6.9233C6.62951 7.30038 6.27269 7.7776 6.02125 8.10002C5.56821 8.5476 5.33939 9.4125 5.04627 10.1682C4.88987 10.571 4.6265 10.753 4.60436 11.271C4.59815 11.4159 4.60318 11.7906 4.74161 11.6834C5.27135 11.2735 5.93449 12.3068 6.9361 13.8834ZM9.68623 3.05195C9.65777 3.13732 9.5402 3.20846 9.61477 3.26826C9.68933 3.32806 9.73222 3.18471 9.88242 3.13101C9.92125 3.1171 10.1018 3.13678 10.135 3.05099C10.1494 3.01355 10.0418 2.97087 9.97784 2.90957C9.91366 2.84838 9.85075 2.79393 9.79063 2.79778C9.63509 2.80773 9.71147 2.97632 9.68623 3.05195ZM10.607 6.16793C10.6629 6.1092 10.6918 6.26935 10.8422 6.36423C10.9615 6.43954 11.0774 6.3837 11.1075 6.53614C11.129 6.64547 11.0609 6.764 10.9692 6.7486C10.8099 6.72175 10.4418 6.34166 10.607 6.16793ZM7.9391 5.36401C7.96751 5.363 7.90712 5.27064 7.89846 5.29772C7.88708 5.33332 7.90405 5.36529 7.9391 5.36401V5.36401ZM7.6968 4.74869C7.72611 4.74227 7.76773 4.79223 7.75478 4.86219C7.73681 4.95932 7.74462 5.02019 7.81191 5.02041C7.82303 5.02041 7.83502 5.01827 7.83919 4.99313C7.87149 4.79961 7.77094 4.65755 7.72986 4.64706C7.63519 4.62289 7.64663 4.75939 7.6968 4.74869ZM9.50073 4.66685C9.56363 4.68557 9.62418 4.79437 9.63734 4.91193C9.63862 4.92295 9.71949 4.89503 9.72003 4.86936C9.72527 4.68012 9.56352 4.59112 9.52138 4.59497C9.42403 4.60374 9.45163 4.65209 9.50073 4.66685ZM8.80239 5.31277C8.77549 5.3218 8.79955 5.21418 8.81713 5.23646C8.84026 5.26579 8.83561 5.30167 8.80239 5.31277V5.31277ZM5.85426 9.069C5.74771 9.05606 5.88528 8.97604 5.94358 8.87537C6.00766 8.76455 5.99525 8.62623 6.06265 8.64666C6.12993 8.66709 6.09249 8.74454 6.04639 8.87152C6.00702 8.97967 5.89352 9.07371 5.85426 9.069Z" fill="black"/>
</svg>
