<svg width="20" height="18" viewBox="0 0 20 18" fill="none" xmlns="http://www.w3.org/2000/svg">
<path d="M7.15576 2.46121H20.0001V3.69758H7.15576V2.46121Z" fill="white"/>
<path d="M7.15576 8.62097H20.0001V9.85734H7.15576V8.62097Z" fill="white"/>
<path d="M7.15576 14.7808H20.0001V16.0171H7.15576V14.7808Z" fill="white"/>
<path d="M2.53284 0.739136C1.13648 0.739136 0 1.78886 0 3.07959C0 4.37027 1.13624 5.42004 2.53284 5.42004C3.92868 5.42004 5.06416 4.37031 5.06416 3.07959C5.06416 1.7889 3.92849 0.739136 2.53284 0.739136ZM2.53284 4.49276C1.68958 4.49276 1.0032 3.85903 1.0032 3.07959C1.0032 2.30014 1.68934 1.66641 2.53284 1.66641C3.37558 1.66641 4.06096 2.30014 4.06096 3.07959C4.06096 3.85903 3.37534 4.49276 2.53284 4.49276Z" fill="white"/>
<path d="M2.53284 6.89891C1.13648 6.89891 0 7.94863 0 9.23936C0 10.5301 1.13624 11.5798 2.53284 11.5798C3.92868 11.5798 5.06416 10.5301 5.06416 9.23936C5.06416 7.94863 3.92849 6.89891 2.53284 6.89891V6.89891ZM2.53284 10.6525C1.68958 10.6525 1.0032 10.0188 1.0032 9.23936C1.0032 8.45992 1.68934 7.82619 2.53284 7.82619C3.37558 7.82619 4.06096 8.45992 4.06096 9.23936C4.06096 10.0188 3.37534 10.6525 2.53284 10.6525Z" fill="white"/>
<path d="M2.53284 13.0582C1.13648 13.0582 0 14.108 0 15.3987C0 16.6894 1.13624 17.7391 2.53284 17.7391C3.92868 17.7391 5.06416 16.6894 5.06416 15.3987C5.06416 14.108 3.92849 13.0582 2.53284 13.0582ZM2.53284 16.8118C1.68958 16.8118 1.0032 16.1781 1.0032 15.3987C1.0032 14.6192 1.68934 13.9855 2.53284 13.9855C3.37558 13.9855 4.06096 14.6192 4.06096 15.3987C4.06096 16.1781 3.37534 16.8118 2.53284 16.8118Z" fill="white"/>
</svg>
