<svg width="17" height="17" viewBox="0 0 17 17" fill="none" xmlns="http://www.w3.org/2000/svg">
<path d="M0.472222 0H7.55556C7.81622 0 8.02778 0.211556 8.02778 0.472222V7.55556C8.02778 7.81622 7.81622 8.02778 7.55556 8.02778H0.472222C0.211556 8.02778 0 7.81622 0 7.55556V0.472222C0 0.211556 0.211556 0 0.472222 0Z" fill="white"/>
<path d="M8.99194 7.53572V0.472222C8.99194 0.211556 9.2035 0 9.46417 0H16.5277C16.7883 0 16.9999 0.211556 16.9999 0.472222V7.53572C16.9999 7.79639 16.7883 8.00794 16.5277 8.00794H9.46417C9.20303 8.00794 8.99194 7.79686 8.99194 7.53572Z" fill="white"/>
<path d="M0.472222 8.97217H7.55556C7.81622 8.97217 8.02778 9.18372 8.02778 9.44439V16.5277C8.02778 16.7884 7.81622 16.9999 7.55556 16.9999H0.472222C0.211556 16.9999 0 16.7884 0 16.5277V9.44439C0 9.18372 0.211556 8.97217 0.472222 8.97217Z" fill="white"/>
<path d="M8.97241 16.5277V9.44439C8.97241 9.18372 9.18397 8.97217 9.44463 8.97217H16.528C16.7886 8.97217 17.0002 9.18372 17.0002 9.44439V16.5277C17.0002 16.7884 16.7886 16.9999 16.528 16.9999H9.44463C9.18397 16.9999 8.97241 16.7884 8.97241 16.5277Z" fill="white"/>
</svg>
