<svg width="20" height="20" viewBox="0 0 20 20" fill="none" xmlns="http://www.w3.org/2000/svg">
<path d="M13.2649 10.3309H17.7968C18.293 10.3309 18.7442 10.5337 19.0706 10.8601C19.397 11.1865 19.5998 11.6377 19.5998 12.1339V16.6658C19.5998 17.162 19.397 17.6132 19.0706 17.9396C18.7442 18.266 18.293 18.4688 17.7968 18.4688H13.2649C12.7687 18.4688 12.3181 18.266 11.9911 17.9396C11.6647 17.6132 11.4619 17.162 11.4619 16.6658V12.1339C11.4619 11.6377 11.6647 11.1865 11.9911 10.8601C12.3175 10.5337 12.7687 10.3309 13.2649 10.3309ZM11.2963 0.864009L14.1787 5.85666C14.3371 6.13086 14.4163 6.42606 14.4163 6.72127C14.4163 7.01647 14.3371 7.31107 14.1787 7.58588L14.1613 7.61348C14.0047 7.87388 13.7959 8.07908 13.5493 8.22128L13.5193 8.23748C13.2679 8.37608 12.9835 8.45049 12.6829 8.45049H6.91747C6.60487 8.45049 6.31086 8.37068 6.05226 8.22188L6.05106 8.22128C5.79606 8.07428 5.58006 7.85948 5.42165 7.58588C5.26325 7.31167 5.18345 7.01707 5.18345 6.72187C5.18345 6.42666 5.26265 6.13146 5.42105 5.85726L6.86227 3.36063L6.87727 3.33723L8.30468 0.864609C8.46128 0.593406 8.67729 0.378004 8.93529 0.228602C9.19329 0.0798008 9.48789 0 9.8005 0C10.1131 0 10.4071 0.0798008 10.6657 0.228602C10.9237 0.377404 11.1397 0.592206 11.2963 0.864009ZM11.9443 3.81964L10.5031 1.32301C10.4269 1.19101 10.3261 1.08841 10.2097 1.02121C10.0933 0.95401 9.9541 0.918009 9.8005 0.918009C9.6469 0.918009 9.50769 0.95401 9.39129 1.02121C9.27489 1.08841 9.17409 1.19101 9.09789 1.32301L9.09669 1.32241L7.66988 3.79384L7.65608 3.81964L6.21486 6.31626C6.14046 6.44586 6.10266 6.58387 6.10266 6.72187C6.10266 6.85987 6.13986 6.99787 6.21486 7.12687V7.12867C6.28986 7.25827 6.39126 7.35967 6.51066 7.42867C6.62707 7.49527 6.76507 7.53188 6.91807 7.53188H12.6835C12.8287 7.53188 12.9607 7.49947 13.0729 7.43947L13.0909 7.42867C13.2043 7.36327 13.3009 7.26847 13.3747 7.14787L13.3867 7.12627C13.4611 6.99727 13.4989 6.85867 13.4989 6.72127C13.4989 6.58327 13.4617 6.44526 13.3867 6.31566L11.9455 3.81904L11.9443 3.81964ZM4.54025 18.2798C5.54046 18.2798 6.44586 17.8742 7.10107 17.219C7.75628 16.5638 8.16188 15.6584 8.16188 14.6581C8.16188 13.6579 7.75628 12.7525 7.10107 12.0973C6.44586 11.4421 5.54046 11.0365 4.54025 11.0365C3.54004 11.0365 2.63463 11.4421 1.97942 12.0973C1.32421 12.7525 0.918609 13.6579 0.918609 14.6581C0.918609 15.6584 1.32421 16.5638 1.97942 17.219C2.63463 17.8742 3.54004 18.2798 4.54025 18.2798ZM7.75028 17.8688C6.92887 18.6902 5.79366 19.1984 4.54025 19.1984C3.28683 19.1984 2.15162 18.6902 1.33021 17.8688C0.508805 17.0468 0 15.9122 0 14.6581C0 13.4047 0.508205 12.2695 1.33021 11.4481C2.15162 10.6267 3.28683 10.1185 4.54025 10.1185C5.79366 10.1185 6.92887 10.6267 7.75028 11.4481C8.57169 12.2695 9.08049 13.4047 9.08049 14.6581C9.08049 15.9116 8.57229 17.0468 7.75028 17.8688ZM17.7968 11.2495H13.2649C13.0225 11.2495 12.8011 11.3491 12.6409 11.5093C12.4807 11.6695 12.3811 11.8903 12.3811 12.1333V16.6652C12.3811 16.9076 12.4807 17.129 12.6409 17.2892C12.8011 17.4494 13.0225 17.549 13.2649 17.549H17.7968C18.0398 17.549 18.2606 17.4494 18.4208 17.2892C18.581 17.129 18.6806 16.9076 18.6806 16.6652V12.1333C18.6806 11.8903 18.581 11.6695 18.4208 11.5093C18.2606 11.3491 18.0398 11.2495 17.7968 11.2495Z" fill="white"/>
</svg>
