<svg width="23" height="22" viewBox="0 0 23 22" fill="none" xmlns="http://www.w3.org/2000/svg">
<path d="M20.1855 0H18.4244H14.9359H7.89133H4.40289H2.64173C1.18539 0 0 1.18539 0 2.64173V18.4583C0 19.9146 1.18539 21.1 2.64173 21.1H20.2194C21.6757 21.1 22.8611 19.9146 22.8611 18.4583V2.64173C22.8273 1.18539 21.6419 0 20.1855 0ZM21.9806 18.4583C21.9806 19.4066 21.2016 20.1855 20.2533 20.1855H2.574C1.62568 20.1855 0.846709 19.4066 0.846709 18.4583V5.38507H21.9806V18.4583V18.4583Z" fill="white"/>
<path d="M8.26405 7.99298H6.97705V9.27998H8.26405V7.99298Z" fill="white"/>
<path d="M13.3441 7.99298H12.0571V9.27998H13.3441V7.99298Z" fill="white"/>
<path d="M15.8842 7.99298H14.5972V9.27998H15.8842V7.99298Z" fill="white"/>
<path d="M18.4584 7.99298H17.1714V9.27998H18.4584V7.99298Z" fill="white"/>
<path d="M5.72401 10.5331H4.43701V11.8201H5.72401V10.5331Z" fill="white"/>
<path d="M8.26405 10.5331H6.97705V11.8201H8.26405V10.5331Z" fill="white"/>
<path d="M13.3441 10.5331H12.0571V11.8201H13.3441V10.5331Z" fill="white"/>
<path d="M15.8842 10.5331H14.5972V11.8201H15.8842V10.5331Z" fill="white"/>
<path d="M18.4584 10.5331H17.1714V11.8201H18.4584V10.5331Z" fill="white"/>
<path d="M5.72401 15.6133H4.43701V16.9003H5.72401V15.6133Z" fill="white"/>
<path d="M8.26405 15.6133H6.97705V16.9003H8.26405V15.6133Z" fill="white"/>
<path d="M13.3441 15.6133H12.0571V16.9003H13.3441V15.6133Z" fill="white"/>
<path d="M10.8041 7.99298H9.51709V9.27998H10.8041V7.99298Z" fill="white"/>
<path d="M10.8041 10.5331H9.51709V11.8201H10.8041V10.5331Z" fill="white"/>
<path d="M5.72401 13.0732H4.43701V14.3602H5.72401V13.0732Z" fill="white"/>
<path d="M8.26405 13.0732H6.97705V14.3602H8.26405V13.0732Z" fill="white"/>
<path d="M13.3441 13.0732H12.0571V14.3602H13.3441V13.0732Z" fill="white"/>
<path d="M15.8842 13.0732H14.5972V14.3602H15.8842V13.0732Z" fill="white"/>
<path d="M18.4584 13.0732H17.1714V14.3602H18.4584V13.0732Z" fill="white"/>
<path d="M10.8041 13.0732H9.51709V14.3602H10.8041V13.0732Z" fill="white"/>
<path d="M10.8041 15.6133H9.51709V16.9003H10.8041V15.6133Z" fill="white"/>
<path d="M15.8842 15.6133H14.5972V16.9003H15.8842V15.6133Z" fill="white"/>
</svg>
