<svg width="24" height="17" viewBox="0 0 24 17" fill="none" xmlns="http://www.w3.org/2000/svg">
<path d="M3.53847 14.2399H20.461C20.7244 14.2399 20.9772 14.1234 21.1635 13.9165C21.3498 13.7093 21.4546 13.4283 21.4546 13.1354V1.66997C21.4546 1.37709 21.3498 1.09607 21.1635 0.888867C20.9772 0.681685 20.7246 0.565216 20.461 0.565216H3.53847C3.27507 0.565216 3.02234 0.681685 2.83599 0.888867C2.64967 1.09605 2.54492 1.37708 2.54492 1.66997V13.1354C2.54492 13.4282 2.64967 13.7093 2.83599 13.9165C3.02232 14.1234 3.27506 14.2399 3.53847 14.2399V14.2399ZM2.94157 1.66997C2.94219 1.3037 3.20907 1.00696 3.53847 1.00626H20.461C20.7904 1.00695 21.0573 1.3037 21.0579 1.66997V13.1354C21.0573 13.5016 20.7904 13.7981 20.461 13.7988H3.53847C3.20907 13.7982 2.9422 13.5016 2.94157 13.1354V1.66997Z" fill="white"/>
<path d="M3.72636 13.2847H20.2737C20.4514 13.2847 20.5953 12.8307 20.5953 12.6331L20.5955 1.87953C20.5955 1.68193 20.4514 1.5217 20.2737 1.5217H3.72636C3.54864 1.5217 3.40454 1.68193 3.40454 1.87953V12.9272C3.40454 13.022 3.43857 13.1129 3.49883 13.1801C3.55909 13.2471 3.64088 13.2848 3.72636 13.2848V13.2847ZM3.80118 1.96286H20.1984V12.6318C20.1894 12.7052 20.1708 12.7765 20.1427 12.8438H3.80104L3.80118 1.96286Z" fill="white"/>
<path d="M12.1307 1.25336C12.1307 1.44732 11.8691 1.44732 11.8691 1.25336C11.8691 1.05963 12.1307 1.05963 12.1307 1.25336Z" fill="white"/>
<path d="M23.9417 14.5818C23.9044 14.5405 23.854 14.5173 23.8015 14.5171H0.198422C0.145743 14.5171 0.0953201 14.5403 0.0582153 14.5818C0.0209089 14.623 0 14.6791 0 14.7377C0 15.2223 0.173208 15.6872 0.481292 16.0298C0.789375 16.3726 1.20754 16.5652 1.64334 16.5652H22.3567C22.7924 16.5652 23.2106 16.3726 23.5187 16.0298C23.8268 15.6872 24 15.2223 24 14.7377C23.9998 14.6791 23.9789 14.6233 23.9418 14.5818H23.9417ZM23.238 15.718C23.0046 15.9785 22.6873 16.1246 22.3566 16.1242H1.64331C1.34732 16.1251 1.06058 16.0079 0.835459 15.7941C0.61039 15.5801 0.461782 15.2836 0.416686 14.9584H23.5832C23.543 15.2455 23.4223 15.5115 23.238 15.718L23.238 15.718Z" fill="white"/>
</svg>
