<svg width="23" height="26" viewBox="0 0 23 26" fill="none" xmlns="http://www.w3.org/2000/svg">
<path d="M19.6612 12.3571C18.3627 12.3571 17.2128 13.1673 16.6565 14.4233V7.33331C16.6565 7.09026 16.5082 6.92803 16.2854 6.92803H9.79345C10.9434 6.32041 11.6853 5.06415 11.6853 3.6463C11.6853 1.6205 10.1643 0 8.34674 0C6.52893 0 5.00817 1.66123 5.00817 3.6463C5.00817 5.06451 5.75004 6.32044 6.90004 6.92803H0.371073C0.148532 6.92803 0 7.08997 0 7.33331V14.3832C0 14.5858 0.11127 14.7073 0.259802 14.7885C0.408077 14.8289 0.593614 14.748 0.66788 14.5858C1.15022 13.6945 2.00336 13.1676 2.93078 13.1676C4.37756 13.1676 5.52749 14.4643 5.52749 16.0037C5.52749 17.5434 4.34026 18.8397 2.93078 18.8397C2.00336 18.8397 1.1502 18.2725 0.66788 17.4215C0.593614 17.2596 0.408077 17.1785 0.259802 17.2189C0.111528 17.2593 0 17.4215 0 17.6241V24.7145C0 24.9575 0.148274 25.1197 0.371073 25.1197H16.2856C16.5081 25.1197 16.6567 24.9578 16.6567 24.7145V17.6241C17.213 18.8801 18.3632 19.6904 19.6614 19.6904C21.5163 19.6904 23 18.0292 23 16.0441C23.0003 14.0587 21.4792 12.3571 19.6614 12.3571L19.6612 12.3571ZM19.6612 18.8802C18.5483 18.8802 17.5839 18.1103 17.2128 16.9759C17.1758 16.814 17.0272 16.6922 16.879 16.6922H16.3226C16.1001 16.6922 15.9515 16.8541 15.9515 17.0974V24.3093H0.741875V18.7587C1.33548 19.3259 2.11439 19.6905 2.96781 19.6905C4.82265 19.6905 6.30639 18.0292 6.30639 16.0442C6.30639 14.0588 4.78536 12.3979 2.96781 12.3979C2.15168 12.3979 1.37278 12.722 0.741875 13.3297V7.73838H7.3451C7.56764 7.73838 7.71617 7.57644 7.71617 7.3331V6.72547C7.71617 6.56353 7.6049 6.40131 7.45637 6.3609C6.41766 5.95562 5.71282 4.86187 5.71282 3.68676C5.71282 2.10663 6.90005 0.850707 8.30953 0.850707C9.71927 0.850707 10.9062 2.14737 10.9062 3.68676C10.9062 4.90232 10.2013 5.95559 9.16269 6.3609C9.01441 6.40131 8.90288 6.56353 8.90288 6.72547V7.3331C8.90288 7.57615 9.05116 7.73838 9.27396 7.73838H15.8772V14.9098C15.8772 15.1528 16.0255 15.3151 16.2483 15.3151H16.8046C16.9529 15.3151 17.1014 15.1935 17.1384 15.0313C17.5095 13.8969 18.5109 13.1271 19.5869 13.1271C21.0336 13.1271 22.1836 14.4237 22.1836 15.9631C22.1838 17.5028 21.0709 18.8803 19.6611 18.8803L19.6612 18.8802Z" fill="black"/>
</svg>
