<svg width="27" height="23" viewBox="0 0 27 23" fill="none" xmlns="http://www.w3.org/2000/svg">
<path fill-rule="evenodd" clip-rule="evenodd" d="M13.5 0C10.4671 0 7.43429 0.541357 4.56997 1.62356C4.46614 1.64682 4.37005 1.69702 4.29113 1.76923C4.21222 1.84144 4.15318 1.93318 4.11982 2.03547L2.27027 7.73336L0.569914 12.9719C0.411921 12.9834 0.264413 13.0563 0.158245 13.1753C0.0520782 13.2944 -0.00452285 13.4504 0.000282776 13.6108C0.0685654 15.802 2.21989 17.4107 4.70267 17.4107C7.18543 17.4107 9.33675 15.802 9.40507 13.6108C9.40987 13.4504 9.35326 13.2944 9.24707 13.1753C9.14088 13.0562 8.99335 12.9833 8.83534 12.9719L7.13499 7.73336L5.47346 2.61452C7.8634 1.7696 10.3712 1.31558 12.8879 1.25224V19.2494C11.9877 19.2911 11.1752 19.4244 10.5197 19.6334C10.1189 19.7612 9.77539 19.9131 9.48916 20.1289C9.20291 20.3448 8.93093 20.6781 8.93093 21.1192C8.93093 21.5606 9.20368 21.8929 9.48982 22.1081C9.77598 22.3233 10.1193 22.4748 10.52 22.6024C11.3213 22.8574 12.3571 23 13.5015 23C14.6444 23 15.6796 22.8573 16.4805 22.6023C16.881 22.4747 17.2241 22.3233 17.5102 22.1081C17.7963 21.8929 18.0691 21.5606 18.0691 21.1192C18.0691 20.6781 17.797 20.3448 17.5109 20.1289C17.2247 19.9131 16.8814 19.7612 16.4808 19.6334C15.8258 19.4244 15.0141 19.2911 14.1151 19.2494V1.25233C16.6308 1.31598 19.1376 1.76995 21.5265 2.61452L19.8649 7.73336L18.1646 12.9719C18.0066 12.9834 17.8591 13.0563 17.7529 13.1753C17.6467 13.2944 17.5901 13.4504 17.5949 13.6108C17.6633 15.802 19.8146 17.4107 22.2973 17.4107C24.7801 17.4107 26.9314 15.802 26.9997 13.6108C27.0045 13.4505 26.9479 13.2944 26.8417 13.1754C26.7356 13.0563 26.5881 12.9835 26.4301 12.972L24.7296 7.73336L22.8802 2.03547C22.8468 1.93328 22.7879 1.84161 22.709 1.76944C22.6302 1.69726 22.5342 1.64706 22.4305 1.62375C19.566 0.541423 16.533 0 13.5 0V0ZM4.70267 4.21943L5.96926 8.12165L7.54286 12.9697H1.86239L3.43599 8.12165L4.70267 4.21943ZM22.2973 4.21943L23.5639 8.12165L25.1375 12.9697H19.457L21.0307 8.12165L22.2973 4.21943V4.21943ZM1.35422 14.2128H8.05113C7.65088 15.2953 6.35221 16.1675 4.70267 16.1675C3.05311 16.1675 1.75445 15.2953 1.35422 14.2128V14.2128ZM18.9489 14.2128H25.6458C25.2456 15.2953 23.9469 16.1675 22.2973 16.1675C20.6478 16.1675 19.3491 15.2953 18.9489 14.2128ZM13.5015 20.4783C14.5399 20.4783 15.4816 20.618 16.1121 20.8191C16.4184 20.9168 16.649 21.0326 16.7668 21.1183C16.6487 21.2037 16.4182 21.3191 16.1124 21.4165C15.4817 21.6173 14.5399 21.7569 13.5015 21.7569C12.4615 21.7569 11.5189 21.6173 10.8878 21.4164C10.5818 21.319 10.3514 21.2036 10.2332 21.1182C10.3511 21.0325 10.5817 20.9168 10.8881 20.8191C11.519 20.6179 12.4615 20.4783 13.5015 20.4783Z" fill="white"/>
</svg>
