<svg width="20" height="20" viewBox="0 0 20 20" fill="none" xmlns="http://www.w3.org/2000/svg">
<path d="M0.637255 0H9.55882C9.7549 0 9.90196 0.0490196 10 0.196078L19.3137 9.5098C20.1961 10.3431 20.1961 11.7647 19.3137 12.6471L12.6471 19.3137C11.7647 20.1961 10.3431 20.1961 9.5098 19.3137L0.196078 10C0.0490196 9.90196 0 9.7549 0 9.55882V0.637255C0 0.245098 0.294118 0 0.637255 0ZM12.0588 14.902C11.8627 15.1471 11.4216 15.1471 11.2255 14.902C10.9804 14.6569 10.9804 14.2647 11.2255 14.0196L14.0196 11.2255C14.2647 10.9804 14.6569 10.9804 14.902 11.2255C15.1471 11.4216 15.1471 11.8627 14.902 12.0588L12.0588 14.902ZM10.4902 13.3333C10.2451 13.5784 9.85294 13.5784 9.60784 13.3333C9.36275 13.0882 9.36275 12.6961 9.60784 12.451L12.451 9.60784C12.6961 9.36275 13.0882 9.36275 13.3333 9.60784C13.5784 9.85294 13.5784 10.2451 13.3333 10.4902L10.4902 13.3333ZM4.41176 4.41176C5.2451 3.57843 6.61765 3.57843 7.45098 4.41176C8.33333 5.2451 8.33333 6.61765 7.45098 7.45098C6.61765 8.33333 5.2451 8.33333 4.41176 7.45098C3.57843 6.61765 3.57843 5.2451 4.41176 4.41176ZM5.29412 5.29412C4.95098 5.63726 4.95098 6.22549 5.29412 6.56863C5.63726 6.96078 6.22549 6.96078 6.56863 6.56863C6.96078 6.22549 6.96078 5.63726 6.56863 5.29412C6.22549 4.95098 5.63726 4.95098 5.29412 5.29412ZM9.31373 1.22549H1.22549V9.31373L10.3922 18.4804C10.7843 18.8235 11.3725 18.8235 11.7647 18.4804L18.4804 11.7647C18.8235 11.3725 18.8235 10.7843 18.4804 10.3922L9.31373 1.22549Z" fill="white"/>
</svg>
