<svg width="5" height="23" viewBox="0 0 5 23" fill="none" xmlns="http://www.w3.org/2000/svg">
<path d="M4.06738 15.7158H1.00586L0.668945 0.671875H4.41895L4.06738 15.7158ZM0.566406 20.3154C0.566406 19.7588 0.74707 19.2998 1.1084 18.9385C1.46973 18.5674 1.96289 18.3818 2.58789 18.3818C3.21289 18.3818 3.70605 18.5674 4.06738 18.9385C4.42871 19.2998 4.60938 19.7588 4.60938 20.3154C4.60938 20.8525 4.43359 21.3018 4.08203 21.6631C3.73047 22.0244 3.23242 22.2051 2.58789 22.2051C1.94336 22.2051 1.44531 22.0244 1.09375 21.6631C0.742188 21.3018 0.566406 20.8525 0.566406 20.3154Z" fill="white"/>
</svg>
