<svg width="17" height="17" viewBox="0 0 17 17" fill="none" xmlns="http://www.w3.org/2000/svg">
<path d="M12.9448 2.17749C13.4567 2.17749 13.9057 1.98339 14.292 1.59519C14.6782 1.20699 14.8713 0.755574 14.8713 0.240954C14.8713 0.184434 14.8667 0.104116 14.8575 0C14.79 0.00892421 14.7395 0.0163611 14.7057 0.0223105C14.2337 0.0877547 13.8184 0.312347 13.4598 0.696079C13.1012 1.07982 12.9218 1.49033 12.9218 1.92762C12.9218 1.97818 12.9295 2.06148 12.9448 2.17749ZM14.7793 9C15.1441 9 15.5471 8.75757 15.9885 8.27269C16.4299 7.7878 16.767 7.21814 17 6.56371C16.1326 6.1294 15.6988 5.5062 15.6988 4.6941C15.6988 4.01587 16.0498 3.4358 16.7517 2.95389C16.2644 2.36192 15.6207 2.06594 14.8207 2.06594C14.4835 2.06594 14.1755 2.11502 13.8966 2.21319L13.7218 2.27565L13.4874 2.3649C13.3341 2.42142 13.1946 2.44969 13.069 2.44969C12.9709 2.44969 12.8421 2.41695 12.6828 2.35151L12.5034 2.28012L12.3333 2.21319C12.0851 2.11204 11.8184 2.06147 11.5333 2.06147C10.7701 2.06147 10.1571 2.31135 9.69425 2.81111C9.23141 3.31085 9 3.96976 9 4.7878C9 5.93901 9.37088 7.00248 10.1126 7.97819C10.6276 8.65939 11.0981 9 11.5241 9C11.705 9 11.8843 8.96579 12.0621 8.89737L12.2874 8.80813L12.4667 8.74566C12.718 8.65939 12.9494 8.61626 13.1609 8.61626C13.3847 8.61626 13.6421 8.6713 13.9333 8.78136L14.0759 8.8349C14.3732 8.94497 14.6077 9 14.7793 9Z" fill="white"/>
<path fill-rule="evenodd" clip-rule="evenodd" d="M0 3C0 1.89543 0.895431 1 2 1H6C7.10457 1 8 1.89543 8 3V7C8 8.10457 7.10457 9 6 9H2C0.89543 9 0 8.10457 0 7V3Z" fill="white"/>
<path fill-rule="evenodd" clip-rule="evenodd" d="M3.50972 7.78456C3.43238 7.65311 3.55248 7.49585 3.56992 7.34433C3.57773 7.27649 3.55617 7.20648 3.50981 7.16099C3.41849 7.07143 2.91453 6.69729 2.78304 6.5502C2.72202 6.48198 2.63926 6.44846 2.60422 6.37174C2.52363 6.19524 2.46714 5.94333 2.56939 5.76251C2.58791 5.72978 2.59979 5.74443 2.58565 5.81254C2.50535 6.19846 2.75666 6.5138 2.81198 6.35205C2.85019 6.24035 2.8148 6.04054 2.83519 5.88186C2.8371 5.86704 2.83962 5.85149 2.8427 5.83533C2.93002 5.37714 3.44531 4.64403 3.43773 4.17766V4.17766C3.43465 3.99457 3.59846 4.40273 3.76313 4.48927C3.94698 4.58588 4.14905 4.30714 4.43594 4.16568C4.51704 4.12566 4.6212 4.07969 4.6142 4.04556C4.58047 3.88095 4.23745 4.24864 3.93097 4.26102C3.79112 4.26661 3.73922 4.23354 3.6852 4.18138C3.5219 4.02351 3.70187 4.15526 3.94461 4.11136C4.05259 4.09183 4.08884 4.0738 4.20332 4.02754C4.31784 3.98128 4.44873 3.91276 4.57831 3.87757C4.66847 3.85306 4.66102 3.7853 4.62588 3.76491C4.60564 3.75318 4.57574 3.75434 4.55203 3.79532C4.4964 3.89147 4.23493 3.94704 4.15343 3.97196C4.04862 4.00398 3.93268 4.03393 3.77879 4.02769C3.5449 4.01823 3.59942 3.911 3.43209 3.81505C3.383 3.78691 3.39629 3.71306 3.46144 3.64787C3.49557 3.61368 3.5892 3.5944 3.63562 3.51668C3.64211 3.50575 3.70192 3.44323 3.74883 3.41081C3.76504 3.39958 3.76645 3.114 3.61991 3.10811C3.49542 3.10307 3.46003 3.19958 3.46526 3.29578C3.47045 3.39188 3.52139 3.47117 3.55532 3.47081C3.62067 3.47011 3.5595 3.5423 3.52371 3.55393C3.46934 3.57165 3.39483 3.33993 3.40339 3.22867C3.41235 3.11279 3.47266 2.9076 3.61936 2.91157C3.75145 2.91515 3.84715 3.08072 3.84232 3.36636C3.84141 3.41478 4.05647 3.34325 4.12826 3.41906C4.17415 3.46762 3.99684 3.02333 4.32256 2.90232C4.40875 2.8703 4.50882 2.87249 4.58951 2.91658C4.61812 2.93221 4.64512 2.95346 4.66962 2.98349C4.78738 3.12784 4.9014 3.46652 4.72339 3.52146V3.52146C4.6982 3.52923 4.67542 3.53282 4.65636 3.53232C4.55394 3.52966 4.64731 3.36983 4.62555 3.26971C4.60539 3.17696 4.54263 3.08685 4.41692 3.09592C4.21379 3.11057 4.24072 3.47097 4.29635 3.47811C4.35208 3.48521 4.49233 3.58474 4.59024 3.60382C4.91147 3.66634 4.67547 3.85054 4.71715 4.0735C4.75059 4.25221 4.84382 4.27059 4.94842 4.50457C5.06707 4.77 5.20696 5.0261 5.29564 5.30299C5.31493 5.3632 5.33454 5.43385 5.35407 5.51699C5.4623 5.97781 5.30901 6.31299 5.56928 6.2855C5.62788 6.27931 5.71351 6.2629 5.75076 6.13231C5.84822 5.79105 5.70198 5.38424 5.55443 5.10978V5.10978C5.53444 5.07255 5.57694 5.0356 5.60068 5.07055C5.68502 5.19475 5.75441 5.33804 5.78001 5.4597C5.84058 5.74727 5.88501 5.88163 5.81345 6.1598C5.80266 6.20176 5.81895 6.24396 5.8575 6.26374V6.26374C5.92443 6.29808 5.89445 6.33145 5.82072 6.31655C5.70265 6.29268 5.56295 6.30163 5.47265 6.36362C5.37769 6.4288 5.26716 6.51605 5.19298 6.60416V6.60416C5.01039 6.82078 5.17989 7.25583 5.16141 7.48906C5.1517 7.61131 5.12758 7.7329 5.10287 7.8548C5.07414 7.99651 4.94973 8.04671 4.99287 7.90871V7.90871C5.02363 7.81029 5.07322 7.6869 5.07644 7.5686C5.07941 7.46153 5.06768 7.39467 5.04075 7.37806C5.01371 7.36145 4.97143 7.39508 4.91303 7.48916C4.78833 7.68993 4.51825 7.77822 4.26604 7.80989C4.01383 7.84145 3.77939 7.81638 3.65525 7.67734C3.61281 7.62977 3.54244 7.69033 3.53408 7.70291C3.52285 7.71983 3.57516 7.75265 3.61457 7.82504C3.61797 7.83127 3.62136 7.8377 3.6247 7.84428C3.69847 7.98969 3.59239 7.9251 3.50972 7.78456V7.78456ZM3.26415 7.53336C3.35451 7.67563 3.67297 8.27464 3.11473 8.35242C2.92802 8.37839 2.62743 8.24378 2.33616 8.1725C2.07448 8.10851 1.80873 8.07066 1.65997 8.02877C1.57041 8.0037 1.53301 7.97153 1.52521 7.93398C1.50457 7.83456 1.63394 7.69516 1.64049 7.57746C1.64703 7.45976 1.59755 7.3985 1.55702 7.30255C1.5164 7.2062 1.50587 7.13411 1.53834 7.09283C1.56362 7.06076 1.61496 7.04732 1.69853 7.05547C1.80445 7.06599 1.93232 7.04425 2.00103 7.00236C2.01376 6.99459 2.02575 6.98592 2.03694 6.97641C2.08766 6.93331 1.98117 6.89354 1.923 6.92589V6.92589C1.79086 6.99944 1.58687 6.93994 1.49314 7.02134C1.38032 7.11915 1.53341 7.37197 1.52088 7.55738C1.51126 7.69994 1.3625 7.86048 1.42885 8.00345C1.49561 8.14728 1.80682 8.16303 2.13127 8.23079C2.59249 8.32735 2.86137 8.49529 3.07446 8.50314C3.38532 8.51472 3.43294 8.1956 3.92105 8.19127C4.06342 8.18382 4.20266 8.17939 4.34176 8.17763C4.49937 8.17567 4.65679 8.17693 4.81844 8.18085C5.14329 8.18871 5.03158 8.35821 5.24231 8.46649C5.42017 8.55781 5.73984 8.52177 5.8163 8.44877C5.91986 8.35005 6.19769 8.11259 6.41058 8.00531C6.67593 7.87161 7.29911 7.6414 6.84674 7.36069C6.83566 7.35381 6.82299 7.34689 6.80917 7.33945C6.55429 7.2024 6.37665 7.2736 6.65097 7.36578V7.36578C6.94516 7.4646 7.12901 7.63007 6.58205 7.81719C6.21984 7.94098 6.15837 7.97914 5.87168 8.21775C5.58151 8.45924 5.15109 8.36339 5.2262 7.85494C5.26542 7.59005 5.28797 7.37121 5.22208 7.1409C5.18981 7.02854 5.1738 6.88416 5.19585 6.78303C5.23864 6.58629 5.34511 6.52709 5.44952 6.71597C5.51501 6.83452 5.53802 6.97306 5.77261 6.98439C6.14111 7.00201 6.2141 6.62828 6.33185 6.61126C6.41043 6.59993 6.48897 6.37753 6.42911 6.01789C6.36503 5.63288 6.13849 5.0248 5.84792 4.71646C5.60643 4.46022 5.45425 4.2355 5.35845 3.91483C5.278 3.6454 5.2332 3.38317 5.24971 3.13247C5.27116 2.80762 5.09104 2.35555 4.80419 2.14291C4.62467 2.00976 4.34317 1.93842 4.08839 1.94124C3.94542 1.9428 3.81096 1.96364 3.70755 2.01978C3.28222 2.25069 3.22282 2.58053 3.22921 2.95698C3.23329 3.19787 3.24018 3.46194 3.25685 3.72719C3.27229 3.97267 3.25013 4.22086 3.11455 4.42608C3.02417 4.56287 2.91669 4.70526 2.83363 4.81176C2.62043 5.02239 2.51275 5.4294 2.37482 5.78501C2.30122 5.97459 2.17728 6.06022 2.16686 6.30398C2.16394 6.37219 2.1663 6.54849 2.23144 6.49804C2.48074 6.30519 2.7928 6.79143 3.26415 7.53336ZM4.55832 2.4362C4.54493 2.47637 4.48961 2.50985 4.5247 2.53799C4.55978 2.56613 4.57997 2.49867 4.65065 2.4734C4.66892 2.46686 4.7539 2.47612 4.76951 2.43575C4.7763 2.41813 4.72566 2.39804 4.69555 2.36919C4.66535 2.3404 4.63575 2.31478 4.60746 2.31659C4.53426 2.32127 4.5702 2.40061 4.55832 2.4362ZM4.99161 3.90254C5.01794 3.87491 5.03153 3.95027 5.10231 3.99492C5.15844 4.03036 5.21301 4.00408 5.22716 4.07582C5.23728 4.12727 5.20521 4.18304 5.16207 4.1758C5.08711 4.16316 4.91389 3.9843 4.99161 3.90254ZM3.73615 3.52423C3.74952 3.52375 3.7211 3.48029 3.71702 3.49303C3.71167 3.50978 3.71965 3.52483 3.73615 3.52423V3.52423ZM3.62213 3.23466C3.63592 3.23164 3.6555 3.25515 3.64941 3.28808C3.64095 3.33379 3.64463 3.36243 3.67629 3.36253C3.68153 3.36253 3.68717 3.36152 3.68913 3.34969C3.70433 3.25863 3.65701 3.19177 3.63768 3.18684C3.59313 3.17546 3.59852 3.2397 3.62213 3.23466ZM4.47103 3.19615C4.50063 3.20496 4.52913 3.25616 4.53532 3.31148C4.53592 3.31667 4.57398 3.30353 4.57423 3.29145C4.5767 3.20239 4.50058 3.16051 4.48075 3.16232C4.43494 3.16645 4.44793 3.18921 4.47103 3.19615ZM4.1424 3.50011C4.12974 3.50436 4.14107 3.45372 4.14934 3.4642C4.16022 3.47801 4.15803 3.49489 4.1424 3.50011V3.50011ZM2.75505 5.26775C2.70491 5.26166 2.76964 5.224 2.79708 5.17663C2.82724 5.12448 2.8214 5.05939 2.85311 5.069C2.88478 5.07862 2.86716 5.11506 2.84546 5.17482C2.82693 5.22571 2.77352 5.26997 2.75505 5.26775Z" fill="black"/>
<path d="M5.19444 10H8.11111C8.21844 10 8.30556 10.0871 8.30556 10.1944V13.1111C8.30556 13.2184 8.21844 13.3056 8.11111 13.3056H5.19444C5.08711 13.3056 5 13.2184 5 13.1111V10.1944C5 10.0871 5.08711 10 5.19444 10Z" fill="white"/>
<path d="M8.70264 13.1029V10.1944C8.70264 10.0871 8.78975 10 8.89708 10H11.8056C11.9129 10 12 10.0871 12 10.1944V13.1029C12 13.2103 11.9129 13.2974 11.8056 13.2974H8.89708C8.78955 13.2974 8.70264 13.2105 8.70264 13.1029Z" fill="white"/>
<path d="M5.19444 13.6943H8.11111C8.21844 13.6943 8.30556 13.7814 8.30556 13.8888V16.8054C8.30556 16.9128 8.21844 16.9999 8.11111 16.9999H5.19444C5.08711 16.9999 5 16.9128 5 16.8054V13.8888C5 13.7814 5.08711 13.6943 5.19444 13.6943Z" fill="white"/>
<path d="M8.69458 16.8054V13.8888C8.69458 13.7814 8.78169 13.6943 8.88902 13.6943H11.8057C11.913 13.6943 12.0001 13.7814 12.0001 13.8888V16.8054C12.0001 16.9128 11.913 16.9999 11.8057 16.9999H8.88902C8.78169 16.9999 8.69458 16.9128 8.69458 16.8054Z" fill="white"/>
</svg>
