<svg width="28" height="22" viewBox="0 0 28 22" fill="none" xmlns="http://www.w3.org/2000/svg">
<path d="M23.3144 11.4207V4.98752C23.3138 4.50424 23.1208 4.0409 22.7777 3.69916C22.4345 3.35742 21.9693 3.1652 21.484 3.16466H10.8795V2.82287C10.879 2.33958 10.686 1.87624 10.3428 1.53451C9.99969 1.19277 9.53446 1.00054 9.04919 1H2.83034C2.34507 1.00054 1.87983 1.19277 1.5367 1.53451C1.19356 1.87624 1.00055 2.33958 1 2.82287V17.4058C1.00055 17.8891 1.19356 18.3524 1.5367 18.6942C1.87983 19.0359 2.34507 19.2281 2.83034 19.2287H17.6468C18.1145 19.8973 18.7362 20.4446 19.4599 20.8248C20.1836 21.2051 20.9882 21.4072 21.8064 21.4143C22.6246 21.4214 23.4326 21.2332 24.1628 20.8656C24.893 20.4979 25.5242 19.9614 26.0036 19.301C26.483 18.6407 26.7965 17.8755 26.9181 17.0697C27.0397 16.2639 26.9658 15.4407 26.7025 14.6692C26.4392 13.8976 25.9942 13.2001 25.4048 12.6349C24.8153 12.0698 24.0985 11.6534 23.3144 11.4207ZM21.484 3.8938C21.7752 3.89414 22.0543 4.00948 22.2602 4.21452C22.4661 4.41956 22.5819 4.69756 22.5822 4.98752V5.74046C22.2659 5.50282 21.8803 5.37447 21.484 5.37488H10.8795V3.8938H21.484ZM2.83034 18.4995C2.53918 18.4992 2.26004 18.3839 2.05415 18.1788C1.84827 17.9738 1.73246 17.6958 1.73214 17.4058V2.82287C1.73246 2.5329 1.84827 2.25489 2.05415 2.04985C2.26004 1.84481 2.53918 1.72947 2.83034 1.72915H9.04919C9.34035 1.72947 9.61949 1.84481 9.82537 2.04985C10.0313 2.25489 10.1471 2.5329 10.1474 2.82287V5.73946C10.1474 5.83615 10.186 5.92888 10.2546 5.99725C10.3233 6.06562 10.4164 6.10403 10.5135 6.10403H21.484C21.7752 6.10436 22.0543 6.21969 22.2602 6.42473C22.4661 6.62978 22.5819 6.90778 22.5822 7.19775V11.2604C21.8549 11.1558 21.1134 11.2083 20.4082 11.4142C19.703 11.6201 19.0505 11.9746 18.495 12.4538C17.9395 12.9329 17.4939 13.5254 17.1885 14.1912C16.8832 14.8569 16.7251 15.5802 16.7251 16.3121C16.7243 17.0689 16.8935 17.8163 17.2203 18.4995H2.83034ZM21.8501 20.687C20.9813 20.687 20.132 20.4304 19.4096 19.9497C18.6872 19.469 18.1241 18.7857 17.7917 17.9863C17.4592 17.1869 17.3722 16.3072 17.5417 15.4586C17.7112 14.61 18.1296 13.8304 18.7439 13.2186C19.3582 12.6067 20.141 12.1901 20.9931 12.0213C21.8452 11.8525 22.7285 11.9391 23.5311 12.2702C24.3338 12.6014 25.0199 13.1621 25.5026 13.8815C25.9853 14.601 26.2429 15.4468 26.2429 16.3121C26.2416 17.472 25.7784 18.584 24.9548 19.4042C24.1313 20.2243 23.0147 20.6857 21.8501 20.687Z" fill="white" stroke="white" stroke-width="0.5"/>
<path d="M22.9482 18.4995H20.7518C20.6547 18.4995 20.5616 18.538 20.493 18.6063C20.4243 18.6747 20.3857 18.7674 20.3857 18.8641C20.3857 18.9608 20.4243 19.0535 20.493 19.1219C20.5616 19.1903 20.6547 19.2287 20.7518 19.2287H22.9482C23.0453 19.2287 23.1384 19.1903 23.2071 19.1219C23.2757 19.0535 23.3143 18.9608 23.3143 18.8641C23.3143 18.7674 23.2757 18.6747 23.2071 18.6063C23.1384 18.538 23.0453 18.4995 22.9482 18.4995Z" fill="white"/>
<path d="M23.0947 16.0204L22.2162 16.6767V13.7601C22.2162 13.6634 22.1776 13.5707 22.109 13.5023C22.0403 13.4339 21.9472 13.3955 21.8501 13.3955C21.753 13.3955 21.6599 13.4339 21.5913 13.5023C21.5226 13.5707 21.484 13.6634 21.484 13.7601V16.6767L20.6055 16.0204C20.567 15.9917 20.5233 15.9708 20.4767 15.9589C20.4301 15.947 20.3817 15.9444 20.3341 15.9512C20.2865 15.958 20.2407 15.974 20.1993 15.9984C20.158 16.0228 20.1218 16.0551 20.093 16.0934C20.0641 16.1317 20.0432 16.1752 20.0312 16.2216C20.0193 16.268 20.0167 16.3163 20.0235 16.3637C20.0303 16.4111 20.0464 16.4566 20.0709 16.4978C20.0953 16.539 20.1277 16.575 20.1662 16.6038L21.6305 17.6975C21.6318 17.6985 21.6333 17.6991 21.6346 17.7001C21.649 17.7106 21.6641 17.7201 21.6798 17.7284C21.6816 17.7293 21.6834 17.7301 21.6852 17.731C21.7004 17.7387 21.7162 17.7453 21.7324 17.7508L21.737 17.7525C21.7535 17.7578 21.7703 17.7618 21.7873 17.7647C21.7908 17.7653 21.7943 17.7658 21.7978 17.7663C21.8322 17.7718 21.8674 17.7718 21.9018 17.7663C21.9053 17.7658 21.9088 17.7653 21.9123 17.7647C21.9293 17.7618 21.9461 17.7578 21.9626 17.7525L21.9672 17.7508C21.9834 17.7453 21.9992 17.7387 22.0144 17.731C22.0162 17.7301 22.018 17.7293 22.0197 17.7284C22.0355 17.7201 22.0506 17.7106 22.065 17.7001C22.0663 17.6991 22.0678 17.6985 22.0691 17.6975L23.5334 16.6038C23.6111 16.5457 23.6624 16.4594 23.6761 16.3637C23.6899 16.2679 23.6649 16.1707 23.6066 16.0934C23.5483 16.016 23.4616 15.9649 23.3655 15.9512C23.2694 15.9375 23.1718 15.9624 23.0941 16.0204H23.0947Z" fill="white"/>
</svg>
