<svg width="16" height="18" viewBox="0 0 16 18" fill="none" xmlns="http://www.w3.org/2000/svg">
<path d="M7.66132 4.355C8.65543 4.355 9.52753 3.9668 10.2776 3.19039C11.0276 2.41398 11.4027 1.51116 11.4027 0.48191C11.4027 0.368869 11.3937 0.208233 11.3759 0C11.2449 0.0178485 11.1467 0.0327223 11.0812 0.0446213C10.1645 0.17551 9.35787 0.624698 8.66138 1.39217C7.96491 2.15965 7.61668 2.98068 7.61668 3.85526C7.61668 3.95638 7.63155 4.12299 7.66132 4.355ZM11.2241 18.0001C11.9325 18.0001 12.7153 17.5152 13.5725 16.5455C14.4297 15.5757 15.0845 14.4364 15.5369 13.1275C13.8523 12.2589 13.0099 11.0125 13.0099 9.38825C13.0099 8.03178 13.6915 6.87164 15.0548 5.90782C14.1083 4.72387 12.8582 4.13189 11.3045 4.13189C10.6496 4.13189 10.0514 4.23006 9.50968 4.42639L9.17037 4.55133L8.71497 4.72982C8.41732 4.84286 8.14647 4.8994 7.9024 4.8994C7.71191 4.8994 7.46187 4.83394 7.15235 4.70305L6.80409 4.56026L6.47373 4.42639C5.99153 4.22411 5.47364 4.12297 4.92003 4.12297C3.43777 4.12297 2.24721 4.62273 1.34832 5.62225C0.449434 6.62174 0 7.93956 0 9.57565C0 11.8781 0.720288 14.005 2.16088 15.9565C3.16097 17.3189 4.07473 18.0001 4.90217 18.0001C5.2534 18.0001 5.60163 17.9317 5.94689 17.7948L6.38443 17.6164L6.73268 17.4914C7.22081 17.3189 7.67024 17.2326 8.08098 17.2326C8.51554 17.2326 9.01559 17.3427 9.58111 17.5628L9.85792 17.6699C10.4353 17.89 10.8907 18.0001 11.2241 18.0001Z" fill="white"/>
</svg>
