<svg width="22" height="25" viewBox="0 0 22 25" fill="none" xmlns="http://www.w3.org/2000/svg">
<path d="M20.1391 12.0948V2.587L21.8826 0.726351C22.0391 0.558203 22.0391 0.294265 21.8826 0.126113C21.7261 -0.0420397 21.4803 -0.0420354 21.3238 0.126113L19.5916 1.98677H11.0978L0.379966 13.5954C0.134085 13.8595 0 14.2077 0 14.5798C0 14.952 0.134089 15.3001 0.379966 15.5642L7.87909 23.6194C8.1362 23.8956 8.46021 24.0276 8.79557 24.0276C9.13078 24.0276 9.46617 23.8956 9.71204 23.6194L20.1391 12.0948ZM8.39311 23.0551L0.893984 14.9999C0.793419 14.8919 0.726375 14.7358 0.726375 14.5797C0.726375 14.4236 0.782191 14.2676 0.893984 14.1476L11.3995 2.76713H18.8539L16.3281 5.48025L15.7357 4.84399C15.5792 4.67585 15.3335 4.67585 15.1769 4.84399L13.4335 6.72879C13.2769 6.89693 13.2769 7.16087 13.4335 7.32902L15.1769 9.20177C15.3335 9.36991 15.5792 9.36991 15.7357 9.20177L17.4792 7.32902C17.6357 7.16087 17.6357 6.89694 17.4792 6.72879L16.8869 6.09253L19.4127 3.37941V11.7707L9.18661 23.0552C8.96302 23.2954 8.60537 23.2954 8.39315 23.0554L8.39311 23.0551ZM15.177 7.32889C15.3335 7.49703 15.5792 7.49703 15.7358 7.32889L16.3281 6.69263L16.641 7.02876L15.4451 8.31331L14.2493 7.02876L15.4451 5.74421L15.7581 6.08033L15.1657 6.71658C15.0316 6.89662 15.0316 7.16072 15.177 7.32887L15.177 7.32889Z" fill="black"/>
</svg>
