<svg width="20" height="19" viewBox="0 0 20 19" fill="none" xmlns="http://www.w3.org/2000/svg">
<path d="M9.99845 0.91304C9.21045 0.91304 8.54788 1.41874 8.38748 2.08652H3.21989H3.21928H3.21712C3.1009 2.08707 2.99268 2.14041 2.92956 2.22839C2.92956 2.22839 2.20497 3.23493 1.47887 4.42323C1.11589 5.01731 0.753208 5.6553 0.476129 6.24648C0.199051 6.83765 0 7.36718 0 7.81812C0 9.4154 1.44518 10.7161 3.21992 10.7161C4.99467 10.7161 6.43985 9.4154 6.43985 7.81812C6.43985 7.36701 6.2408 6.83751 5.96372 6.24648C5.68663 5.6553 5.32396 5.01731 4.96098 4.42323C4.50179 3.67174 4.11878 3.10469 3.84368 2.7072H8.38704C8.52282 3.27607 9.02297 3.72661 9.6552 3.84855V16.686H6.80886C6.79701 16.6855 6.78516 16.6855 6.77315 16.686C6.59658 16.702 6.4622 16.8361 6.46281 16.9958V18.6014C6.46235 18.6842 6.49868 18.7637 6.5638 18.8222C6.62876 18.8806 6.71696 18.9133 6.80887 18.913H13.1902C13.2818 18.9129 13.3696 18.8799 13.4342 18.8215C13.4987 18.763 13.5347 18.6839 13.5344 18.6015V16.9958C13.534 16.8249 13.3802 16.6865 13.1902 16.686H10.3448V3.8482C10.9757 3.72545 11.4748 3.27547 11.6104 2.70742H16.1565C15.8814 3.10491 15.4978 3.67182 15.0386 4.42345C14.6756 5.01753 14.3102 5.65552 14.0331 6.24669C13.756 6.83787 13.5576 7.3674 13.5576 7.81833C13.5576 9.41562 15.0027 10.7163 16.7775 10.7163C18.5522 10.7163 20 9.41562 20 7.81833C20 7.36722 19.7982 6.83773 19.5211 6.24669C19.244 5.65552 18.8814 5.01753 18.5184 4.42345C17.7922 3.23528 17.0677 2.22861 17.0677 2.22861V2.22875C17.0041 2.14008 16.8947 2.0866 16.7775 2.08688H11.6099C11.4495 1.41909 10.787 0.913395 9.99895 0.913395L9.99845 0.91304ZM9.99845 1.53429C10.5326 1.53429 10.9581 1.91723 10.9581 2.398C10.9581 2.87876 10.5326 3.26114 9.99845 3.26114C9.46427 3.26114 9.03878 2.87876 9.03878 2.398C9.03878 1.91723 9.46427 1.53429 9.99845 1.53429V1.53429ZM16.7798 3.00233C16.9872 3.29604 17.3474 3.79244 17.9146 4.7207C18.2705 5.30315 18.6249 5.93007 18.8872 6.48936C19.0487 6.83392 19.1656 7.15023 19.2361 7.41013H14.3211C14.3916 7.15036 14.5078 6.83407 14.6693 6.48936C14.9314 5.93004 15.2858 5.30315 15.6419 4.7207C16.2094 3.79177 16.5729 3.29561 16.7801 3.00233H16.7798ZM3.21985 3.00468C3.42782 3.29923 3.78867 3.79327 4.35528 4.72071C4.71118 5.30316 5.06494 5.93009 5.32709 6.48937C5.48857 6.83394 5.60541 7.15024 5.67591 7.41015H0.762895C0.832628 7.15038 0.948236 6.83408 1.10972 6.48937C1.37187 5.93005 1.72823 5.30316 2.08428 4.72071C2.65109 3.79331 3.01191 3.29924 3.21971 3.00468H3.21985ZM0.700961 8.0308H5.73851C5.61998 9.19193 4.54196 10.0953 3.21977 10.0953C1.89759 10.0953 0.81958 9.19179 0.700882 8.0308H0.700961ZM14.2582 8.0308H19.2977C19.1788 9.19193 18.099 10.0953 16.7768 10.0953C15.4546 10.0953 14.3766 9.19179 14.2579 8.0308H14.2582ZM7.15247 17.307H12.8442V18.2919H7.15247V17.307Z" fill="white"/>
</svg>
